<svg width="25" height="24" viewBox="0 0 25 24" fill="none" xmlns="http://www.w3.org/2000/svg">
<path d="M12.8057 2.16329C16.0119 2.16329 16.3916 2.17735 17.6525 2.2336C18.8244 2.28516 19.4572 2.48204 19.8791 2.6461C20.4369 2.86173 20.84 3.12422 21.2572 3.54141C21.6791 3.96329 21.9369 4.36172 22.1525 4.91954C22.3166 5.34141 22.5135 5.97891 22.565 7.1461C22.6213 8.41172 22.6354 8.79141 22.6354 11.993C22.6354 15.1992 22.6213 15.5789 22.565 16.8399C22.5135 18.0117 22.3166 18.6445 22.1525 19.0664C21.9369 19.6242 21.6744 20.0274 21.2572 20.4445C20.8354 20.8664 20.4369 21.1242 19.8791 21.3399C19.4572 21.5039 18.8197 21.7008 17.6525 21.7523C16.3869 21.8086 16.0072 21.8227 12.8057 21.8227C9.59941 21.8227 9.21973 21.8086 7.95879 21.7523C6.78691 21.7008 6.1541 21.5039 5.73223 21.3399C5.17441 21.1242 4.77129 20.8617 4.3541 20.4445C3.93223 20.0227 3.67441 19.6242 3.45879 19.0664C3.29473 18.6445 3.09785 18.007 3.04629 16.8399C2.99004 15.5742 2.97598 15.1945 2.97598 11.993C2.97598 8.78673 2.99004 8.40704 3.04629 7.1461C3.09785 5.97422 3.29473 5.34141 3.45879 4.91954C3.67441 4.36172 3.93691 3.9586 4.3541 3.54141C4.77598 3.11954 5.17441 2.86173 5.73223 2.6461C6.1541 2.48204 6.7916 2.28516 7.95879 2.2336C9.21973 2.17735 9.59941 2.16329 12.8057 2.16329ZM12.8057 0.00234985C9.54785 0.00234985 9.14004 0.0164124 7.86035 0.0726624C6.58535 0.128912 5.70879 0.335162 4.94941 0.630475C4.15723 0.93985 3.48691 1.34766 2.82129 2.01797C2.15098 2.6836 1.74316 3.35391 1.43379 4.14141C1.13848 4.90548 0.932227 5.77735 0.875977 7.05235C0.819727 8.33672 0.805664 8.74454 0.805664 12.0023C0.805664 15.2602 0.819727 15.668 0.875977 16.9477C0.932227 18.2227 1.13848 19.0992 1.43379 19.8586C1.74316 20.6508 2.15098 21.3211 2.82129 21.9867C3.48691 22.6523 4.15723 23.0648 4.94473 23.3695C5.70879 23.6649 6.58066 23.8711 7.85566 23.9273C9.13535 23.9836 9.54316 23.9977 12.801 23.9977C16.0588 23.9977 16.4666 23.9836 17.7463 23.9273C19.0213 23.8711 19.8979 23.6649 20.6572 23.3695C21.4447 23.0648 22.115 22.6523 22.7807 21.9867C23.4463 21.3211 23.8588 20.6508 24.1635 19.8633C24.4588 19.0992 24.665 18.2274 24.7213 16.9524C24.7775 15.6727 24.7916 15.2649 24.7916 12.007C24.7916 8.74923 24.7775 8.34141 24.7213 7.06173C24.665 5.78673 24.4588 4.91016 24.1635 4.15079C23.8682 3.35391 23.4604 2.6836 22.79 2.01797C22.1244 1.35235 21.4541 0.93985 20.6666 0.635162C19.9025 0.33985 19.0307 0.1336 17.7557 0.0773499C16.4713 0.0164124 16.0635 0.00234985 12.8057 0.00234985Z" fill="#FF9900"/>
<path d="M12.8057 5.83829C9.40254 5.83829 6.6416 8.59923 6.6416 12.0023C6.6416 15.4055 9.40254 18.1664 12.8057 18.1664C16.2088 18.1664 18.9697 15.4055 18.9697 12.0023C18.9697 8.59923 16.2088 5.83829 12.8057 5.83829ZM12.8057 16.0008C10.5979 16.0008 8.80723 14.2102 8.80723 12.0023C8.80723 9.79454 10.5979 8.00391 12.8057 8.00391C15.0135 8.00391 16.8041 9.79454 16.8041 12.0023C16.8041 14.2102 15.0135 16.0008 12.8057 16.0008Z" fill="#FF9900"/>
<path d="M20.6525 5.59449C20.6525 6.39137 20.0057 7.03355 19.2135 7.03355C18.4166 7.03355 17.7744 6.38668 17.7744 5.59449C17.7744 4.79761 18.4213 4.15543 19.2135 4.15543C20.0057 4.15543 20.6525 4.8023 20.6525 5.59449Z" fill="#FF9900"/>
</svg>
