<svg width="25" height="24" viewBox="0 0 25 24" fill="none" xmlns="http://www.w3.org/2000/svg">
<path id="lonked-in" d="M22.3206 0H1.86904C0.889355 0 0.097168 0.773438 0.097168 1.72969V22.2656C0.097168 23.2219 0.889355 24 1.86904 24H22.3206C23.3003 24 24.0972 23.2219 24.0972 22.2703V1.72969C24.0972 0.773438 23.3003 0 22.3206 0ZM7.21748 20.4516H3.65498V8.99531H7.21748V20.4516ZM5.43623 7.43438C4.29248 7.43438 3.36904 6.51094 3.36904 5.37187C3.36904 4.23281 4.29248 3.30937 5.43623 3.30937C6.57529 3.30937 7.49873 4.23281 7.49873 5.37187C7.49873 6.50625 6.57529 7.43438 5.43623 7.43438ZM20.5487 20.4516H16.9909V14.8828C16.9909 13.5562 16.9675 11.8453 15.1394 11.8453C13.2878 11.8453 13.0065 13.2937 13.0065 14.7891V20.4516H9.45342V8.99531H12.8659V10.5609H12.9128C13.3862 9.66094 14.5487 8.70938 16.2784 8.70938C19.8831 8.70938 20.5487 11.0813 20.5487 14.1656V20.4516Z" fill="#FF9900"/>
</svg>
