<svg width="25" height="20" viewBox="0 0 25 20" fill="none" xmlns="http://www.w3.org/2000/svg">
<path d="M8.45299 19.7503C17.5074 19.7503 22.4611 12.2471 22.4611 5.74223C22.4611 5.53129 22.4564 5.31566 22.4471 5.10473C23.4107 4.40783 24.2423 3.54462 24.9028 2.55566C24.0054 2.95497 23.0525 3.21575 22.0767 3.3291C23.1041 2.71327 23.8734 1.74584 24.2419 0.606133C23.2754 1.17892 22.2184 1.58298 21.1163 1.80098C20.3737 1.01193 19.3918 0.489483 18.3225 0.314417C17.2532 0.139352 16.156 0.321417 15.2006 0.832463C14.2451 1.34351 13.4846 2.15507 13.0367 3.14168C12.5887 4.12828 12.4783 5.23498 12.7224 6.29066C10.7653 6.19246 8.85077 5.68407 7.10281 4.79846C5.35486 3.91286 3.81253 2.6698 2.5758 1.14988C1.94723 2.23361 1.75489 3.51601 2.03786 4.73646C2.32084 5.9569 3.05789 7.02381 4.09924 7.72035C3.31746 7.69553 2.55281 7.48505 1.86846 7.10629V7.16723C1.86776 8.30451 2.26093 9.40695 2.98114 10.2871C3.70135 11.1673 4.70416 11.7709 5.81908 11.9954C5.09489 12.1935 4.33481 12.2224 3.59768 12.0797C3.91229 13.0578 4.52441 13.9133 5.3486 14.5267C6.1728 15.1401 7.16795 15.481 8.19518 15.5016C6.45126 16.8715 4.29701 17.6145 2.07939 17.611C1.68612 17.6104 1.29323 17.5863 0.902832 17.5388C3.15569 18.9841 5.77636 19.7517 8.45299 19.7503Z" fill="#FF9900"/>
</svg>
