<svg width="24" height="18" viewBox="0 0 24 18" fill="none" xmlns="http://www.w3.org/2000/svg">
<path id="you-tube" d="M23.7609 4.20234C23.7609 4.20234 23.5266 2.54765 22.8047 1.82109C21.8906 0.864838 20.8688 0.86015 20.4 0.8039C17.0438 0.56015 12.0047 0.56015 12.0047 0.56015H11.9953C11.9953 0.56015 6.95625 0.56015 3.6 0.8039C3.13125 0.86015 2.10938 0.864838 1.19531 1.82109C0.473438 2.54765 0.24375 4.20234 0.24375 4.20234C0.24375 4.20234 0 6.14765 0 8.08828V9.90702C0 11.8476 0.239062 13.793 0.239062 13.793C0.239062 13.793 0.473437 15.4477 1.19062 16.1742C2.10469 17.1305 3.30469 17.0977 3.83906 17.2008C5.76094 17.3836 12 17.4398 12 17.4398C12 17.4398 17.0438 17.4305 20.4 17.1914C20.8688 17.1352 21.8906 17.1305 22.8047 16.1742C23.5266 15.4477 23.7609 13.793 23.7609 13.793C23.7609 13.793 24 11.8523 24 9.90702V8.08828C24 6.14765 23.7609 4.20234 23.7609 4.20234ZM9.52031 12.1148V5.36952L16.0031 8.7539L9.52031 12.1148Z" fill="#FF9900"/>
</svg>
